<svg xmlns="http://www.w3.org/2000/svg" viewBox="0 0 24 24" fill="#F05032">
    <path d="M11.996 0C5.376 0 0 5.376 0 11.996c0 5.301 3.438 9.793 8.205 11.385.6.111.82-.26.82-.578 0-.285-.01-1.04-.015-2.04-3.338.726-4.042-1.61-4.042-1.61-.546-1.387-1.333-1.756-1.333-1.756-1.09-.745.082-.73.082-.73 1.205.085 1.84 1.237 1.84 1.237 1.07 1.834 2.807 1.304 3.492.997.108-.775.418-1.305.762-1.605-2.665-.3-5.466-1.332-5.466-5.93 0-1.31.468-2.38 1.235-3.22-.123-.3-.535-1.52.117-3.16 0 0 1.008-.322 3.3 1.23.96-.267 1.98-.4 3-.405 1.02.005 2.04.138 3 .405 2.29-1.552 3.297-1.23 3.297-1.23.653 1.64.24 2.86.118 3.16.768.84 1.233 1.91 1.233 3.22 0 4.61-2.804 5.62-5.476 5.92.43.37.824 1.102.824 2.22 0 1.602-.015 2.894-.015 3.287 0 .322.216.694.825.577C20.565 21.786 24 17.295 24 11.996 24 5.376 18.624 0 11.996 0z"/>
</svg>