<svg xmlns="http://www.w3.org/2000/svg" viewBox="0 0 24 24" fill="#4479A1">
    <path d="M16.757 10.338c-.143.063-.386.108-.613.108-.416 0-.723-.143-.932-.42-.12-.138-.281-.397-.365-.588-.089-.206-.143-.417-.185-.65-.028-.15-.032-.286-.015-.422.014-.109.06-.211.095-.308.016-.043.033-.096.031-.131-.003-.045-.028-.08-.05-.116l-.04-.069c-.076-.155-.13-.337-.157-.528-.027-.188-.015-.383.036-.574.052-.191.133-.369.243-.527.1-.145.235-.273.383-.376.149-.103.305-.185.474-.242.159-.056.333-.096.503-.112.17-.016.338-.012.502.013.162.025.322.069.473.126.15.058.293.131.43.221.046.03.098.069.122.109l.016.026c.013.019.029.039.036.059.006.018.006.042.003.064-.004.022-.012.045-.016.067-.002.011-.005.02-.009.029-.01.019-.035.038-.049.048l-.03.02c-.014.005-.038.008-.052.012-.031.01-.07.016-.103.028-.101.039-.199.089-.294.145-.084.05-.17.11-.238.18-.08.087-.139.189-.164.293-.016.067-.03.137-.025.207.006.072.023.142.052.207.01.022.03.045.031.067.002.016-.003.032-.006.047l-.016.071c-.005.016-.013.032-.012.048.011.04.019.08.043.117l.043.064.022.036c.006.01.012.019.016.029.005.008.002.016.002.024-.005.032-.006.064-.005.097.003.066.026.133.056.197.012.022.028.042.043.063.036.05.062.106.075.164l.035.193.032.193c.013.064.031.127.064.186.034.059.076.111.128.154.054.043.117.076.183.094.066.018.134.022.202.013.068-.009.134-.032.194-.067.043-.027.081-.061.113-.101.021-.025.046-.054.073-.077.045-.036.092-.067.143-.092l.054-.022c.016-.007.035-.011.052-.015.018-.004.036-.005.055-.005.075.003.148.027.213.071.064.044.11.105.133.175.022.067.028.138.018.207-.007.07-.03.137-.066.198-.036.061-.086.115-.146.156-.069.047-.149.081-.233.096-.084.015-.171.014-.254-.002-.082-.016-.162-.05-.232-.095-.012-.008-.024-.016-.034-.025-.015-.016-.033-.031-.052-.043l.01.006z"/>
</svg>