<svg xmlns="http://www.w3.org/2000/svg" viewBox="0 0 24 24" fill="#777BB4">
    <path d="M7.01 10.207h-.944l-.493 2.477h.903c.537 0 .893-.114 1.133-.361.227-.234.344-.585.344-1.054 0-.466-.118-.81-.368-1.016-.253-.206-.575-.31-.966-.31v-.736h-.05zm3.86 0h-.945l-.493 2.477h.904c.537 0 .893-.114 1.133-.361.227-.234.344-.585.344-1.054 0-.466-.118-.81-.368-1.016-.253-.206-.575-.31-.966-.31v-.736h-.05zm5.975-.855c-.493-.158-1.136-.236-1.93-.236h-1.873l-1.054 5.313h1.018l.311-1.563h.643c1.078 0 1.897-.217 2.456-.653.401-.312.603-.735.603-1.268 0-.523-.176-.92-.538-1.191l-.336-.193-.283-.172z"/>
</svg>