<svg xmlns="http://www.w3.org/2000/svg" viewBox="0 0 24 24" fill="#61DAFB">
    <circle cx="12" cy="12" r="2.5" fill="#61DAFB"/>
    <path d="M12 2C9.5 2 7.5 3.5 6.5 6c-1 2.5-1 5.5 0 8 1 2.5 3 4 5.5 4s4.5-1.5 5.5-4c1-2.5 1-5.5 0-8C16.5 3.5 14.5 2 12 2z" fill="none" stroke="#61DAFB" stroke-width="1.5"/>
    <path d="M5 7c-2.5 1-4 3-4 5s1.5 4 4 5c2.5 1 5.5 1 8 0 2.5-1 4-3 4-5s-1.5-4-4-5c-2.5-1-5.5-1-8 0z" fill="none" stroke="#61DAFB" stroke-width="1.5"/>
    <path d="M5 17c-2.5-1-4-3-4-5s1.5-4 4-5c2.5-1 5.5-1 8 0 2.5 1 4 3 4 5s-1.5 4-4 5c-2.5 1-5.5 1-8 0z" fill="none" stroke="#61DAFB" stroke-width="1.5"/>
</svg>