<svg xmlns="http://www.w3.org/2000/svg" viewBox="0 0 24 24" fill="#6DB33F">
    <path d="M21.737 11.814c-.186-.826-.764-1.544-1.708-2.192-.052-.036-.106-.07-.161-.103l-.003-.002c-.752-.449-1.581-.776-2.37-1.002-.318-.091-.65-.161-.961-.223-.16-.032-.333-.061-.49-.085-.033-.005-.068-.011-.103-.016-.014-.002-.03-.005-.045-.008-.015-.003-.031-.005-.046-.007-.176-.029-.353-.052-.53-.075-.279-.038-.559-.066-.84-.087l-.107-.008c-.292-.022-.586-.035-.881-.04l-.12-.002-.007-.001h-.012c-.304-.004-.61-.001-.917.011-.676.025-1.336.116-1.983.321-.627.199-1.232.499-1.799.882-.233.168-.456.346-.674.529-.529.459-1.013 1.002-1.427 1.591-.366.521-.676 1.083-.922 1.668-.271.679-.46 1.378-.576 2.067-.05.293-.087.587-.111.881l-.001.009v.008c-.011.129-.018.258-.021.388-.004.182-.003.366.005.55.029.835.155 1.658.42 2.421.064.186.136.363.214.537l.005.011c.066.14.137.278.211.413l.032.057.036.059c.066.109.136.216.208.32.151.218.311.431.48.637.081.099.162.197.248.29l.016.017.008.009c.094.103.191.203.29.301.362.357.752.679 1.171.958.105.07.212.138.321.204l.039.023.024.014c.166.097.337.187.511.27l.01.005c.092.044.185.087.28.127l.055.023.058.023c.18.07.365.133.553.19l.005.001.01.003.025.008.016.005.025.007.011.003.026.006.031.008.032.007.025.006.038.008.083.018.069.014.07.013c.208.038.42.067.636.087h.002l.032.003.061.005.058.004.064.004.058.003.057.003.052.002.059.003.091.003.173.005.019.001.041.001.067.001.023-.001.063-.001.05-.001.169-.003c.73-.011 1.468-.106 2.192-.278.404-.095.801-.22 1.187-.373l.062-.025.07-.028.018-.007.011-.005.064-.027.111-.049.055-.024.02-.009.067-.031.016-.008.019-.009c.033-.016.066-.032.099-.049l.035-.018.036-.019.109-.058.037-.02.018-.01c.118-.065.235-.133.351-.204l.233-.145.011-.007.079-.052.076-.052.032-.022.084-.06.069-.05.102-.077.166-.128.219-.177c.062-.051.123-.105.183-.16l.043-.039.082-.077.043-.042.021-.021.225-.231.021-.023.138-.155.016-.019.095-.115.006-.008c.326-.396.627-.815.876-1.265.13-.237.249-.481.356-.73.124-.286.229-.58.313-.878.043-.153.08-.308.113-.465.058-.278.107-.562.144-.844.004-.034.009-.068.013-.102l.008-.067.008-.068c.019-.168.036-.337.05-.506l.006-.071.004-.037.01-.107.005-.071c.011-.152.02-.305.027-.458l.003-.065.002-.061c.017-.566-.002-1.147-.061-1.699l-.001-.006-.002-.009c-.03-.257-.064-.51-.103-.76-.077-.432-.197-.857-.362-1.267l-.003-.006-.001-.003zm-5.432 6.271c-.481.464-1.213.807-1.79.807-.27 0-.531-.053-.784-.157-.808-.331-1.394-1.126-1.545-2.248-.154-1.149.204-2.253.939-2.923.267-.244.561-.436.874-.563.207-.084.422-.134.637-.148.146-.009.291-.006.433.011.607.071 1.177.405 1.588.948.403.532.579 1.19.492 1.835-.068.507-.316.962-.758 1.307l.097.087-.001.001-.061.054.055-.056c.105-.099.187-.174.279-.264.428-.423.708-1.024.754-1.597.087-1.091-.321-2.21-1.085-2.924-.577-.54-1.31-.833-2.094-.864-.464-.019-.932.057-1.381.227-.732.276-1.362.818-1.804 1.553-.419.697-.613 1.522-.548 2.336.107 1.327.875 2.498 2.083 3.022.412.179.853.279 1.287.293h.001c.364.012.727-.046 1.08-.171.454-.161.865-.438 1.211-.812l-.174-.194zm-2.785-1.006c-1.497 1.608-3.211.77-3.211.77.591-1.286 1.44-1.778 1.771-1.962.42-.23.768-.38.768-.38s-.739.29-1.588.693c-.241.115-.852.412-1.387.889.303-1.386 1.372-2.012 1.711-2.181.541-.266 1.102-.382 1.102-.382s-.857.298-1.542.761c-.307.207-.89.652-1.375 1.254.271-1.114.93-1.578 1.254-1.784.677-.432 1.436-.656 1.436-.656s-.894.288-1.569.765c-.374.262-.968.749-1.429 1.423.186-1.396.992-2.094 1.397-2.341.727-.443 1.653-.674 1.653-.674s-1.058.174-1.892.723c-.961.634-1.596 1.614-1.525 2.888-.003.035 0 .072.001.108-.038-.036-.072-.066-.072-.066s-.155.758.171 1.51c.014-.234.045-.466.095-.696.041-.18.093-.357.158-.529.126-.03.258-.058.398-.083.492.203.924.443 1.316.699.436.285.881.642 1.263 1.074-.083.059-.173.119-.276.175-.477.262-.84.638-1.081 1.118-.07.138-.13.282-.177.429-.126.008-.252.001-.377-.019-.491-.079-.95-.355-1.309-.768-.271-.313-.484-.673-.632-1.063-.173-.454-.28-.927-.306-1.394-.045-.831.088-1.67.392-2.437.202-.507.491-.967.848-1.361.36-.399.789-.725 1.261-.959.499-.247 1.041-.407 1.583-.47.518-.06 1.039-.053 1.548.019.275.039.543.101.798.179.454.142.866.371 1.216.67.586.5.998 1.169 1.123 1.849.015.081.027.162.036.244.008.072.014.144.018.216.004.089.006.178.005.267 0 .044-.002.088-.005.131-.018.297-.073.593-.162.879-.078.25-.182.493-.31.722-.148.265-.321.52-.515.758-.295.36-.634.683-1.012.959zm-.897-7.016c-.387-.352-.841-.61-1.326-.761-.316-.098-.649-.157-.977-.164-.25-.006-.498.014-.739.064-.383.079-.746.244-1.059.495-.518.414-.858 1.014-.964 1.648-.111.661.03 1.338.382 1.878.354.543.885.912 1.481 1.06.295.073.601.095.9.069.481-.042.944-.257 1.321-.607.392-.365.646-.862.707-1.39.066-.571-.091-1.141-.404-1.573-.112-.155-.238-.296-.377-.421.031-.018.077-.052.078-.054-.072-.013-.143-.029-.215-.046.098-.029.143.049.143.049l-.022-.014c-.005-.009-.158-.119-.361-.191-.193-.068-.42-.099-.648-.09-.126.005-.251.024-.373.059-.087.025-.17.058-.248.099.044-.109.096-.212.156-.31.125-.207.287-.392.474-.548.23-.191.497-.344.778-.457.233-.094.481-.157.729-.189.257-.033.516-.033.769-.001.281.036.555.107.817.21.274.109.536.251.772.425l.009.007.024.016.088.062.068.053.073.06.075.067.063.061.078.082.063.073.039.049.052.068.038.053.022.032.031.047.02.033.012.018.032.052.014.027.01.019.018.034.008.016.003.006.026.058.009.021.004.011.013.036.002.007.007.023c.389 1.296-.154 2.716-1.115 3.402-.046.033-.094.064-.142.094l.04-.044.036-.044-.04.046c-.063.069-.128.136-.196.2.698-.683 1.167-1.671 1.115-2.714-.051-1.022-.551-1.911-1.312-2.494z"/>
</svg>