<svg xmlns="http://www.w3.org/2000/svg" viewBox="0 0 24 24" fill="#FB7A24">
    <circle cx="12" cy="12" r="10" fill="none" stroke="#FB7A24" stroke-width="1.5"/>
    <path d="M12 4C8.5 4 5.5 6.5 4.5 9.5c1.5-2.5 4-4 7-4s5.5 1.5 7 4c-1-3-4-5.5-7-5.5z"/>
    <path d="M12 20c3.5 0 6.5-2.5 7.5-5.5-1.5 2.5-4 4-7 4s-5.5-1.5-7-4c1 3 4 5.5 7 5.5z"/>
    <path d="M8 9c-.5.5-1 1.5-1 2.5 0 1.5 1 2.5 2 2.5s2-1 2-2.5c0-1-.5-2-1-2.5"/>
    <path d="M16 9c.5.5 1 1.5 1 2.5 0 1.5-1 2.5-2 2.5s-2-1-2-2.5c0-1 .5-2 1-2.5"/>
    <circle cx="9" cy="11.5" r="0.5" fill="#FB7A24"/>
    <circle cx="15" cy="11.5" r="0.5" fill="#FB7A24"/>
    <path d="M10 15c0 1.5 1 2.5 2 2.5s2-1 2-2.5" fill="none" stroke="#FB7A24" stroke-width="1"/>
</svg>